<svg width="200" height="200" viewBox="0 0 200 200" fill="none" xmlns="http://www.w3.org/2000/svg">
<rect width="200" height="200" fill="#E5E5E5"/>
<g clip-path="url(#clip0)">
<rect width="200" height="200" fill="white" fill-opacity="0.5"/>
<rect x="-62" y="-52" width="325" height="315" fill="#01579B"/>
<path d="M60.6094 74.8906L29.0078 132H17.4844L49.0859 74.8906H60.6094ZM94.2812 74.8906L62.6797 132H51.1562L82.7578 74.8906H94.2812Z" fill="#119DA4"/>
<path d="M123.695 84.0703C120.258 84.0703 117.159 85.125 114.398 87.2344C111.664 89.3438 109.464 92.4557 107.797 96.5703C106.13 100.659 105.297 105.06 105.297 109.773C105.297 114.122 106.182 117.352 107.953 119.461C109.75 121.57 112.602 122.625 116.508 122.625C120.31 122.625 124.711 121.622 129.711 119.617V129.773C124.529 131.779 119.32 132.781 114.086 132.781C107.471 132.781 102.328 130.841 98.6562 126.961C94.9844 123.055 93.1484 117.534 93.1484 110.398C93.1484 103.576 94.5026 97.2995 97.2109 91.5703C99.9193 85.8151 103.539 81.4531 108.07 78.4844C112.602 75.4896 117.81 73.9922 123.695 73.9922C126.951 73.9922 129.841 74.2917 132.367 74.8906C134.893 75.4635 137.602 76.5312 140.492 78.0938L135.883 87.8594C133.122 86.3229 130.844 85.3073 129.047 84.8125C127.25 84.3177 125.466 84.0703 123.695 84.0703ZM151.312 132H139.398L151.469 74.8906H183.266L181.156 84.8125H161.312L158.227 99.5391H176.703L174.516 109.422H156.039L151.312 132Z" fill="white"/>
</g>
<defs>
<clipPath id="clip0">
<rect width="200" height="200" fill="white"/>
</clipPath>
</defs>
</svg>
