<svg width="200" height="200" viewBox="0 0 200 200" fill="none" xmlns="http://www.w3.org/2000/svg">
<rect width="200" height="200" fill="#E5E5E5"/>
<g clip-path="url(#clip0)">
<rect width="200" height="200" fill="white"/>
<rect x="-158" y="-69" width="472" height="442" fill="#292929"/>
<path d="M71.1719 54.8672C62.9688 54.8672 56.6172 57.9609 52.1172 64.1484C47.6172 70.2891 45.3672 78.8672 45.3672 89.8828C45.3672 112.805 53.9688 124.266 71.1719 124.266C78.3906 124.266 87.1328 122.461 97.3984 118.852V137.133C88.9609 140.648 79.5391 142.406 69.1328 142.406C54.1797 142.406 42.7422 137.883 34.8203 128.836C26.8984 119.742 22.9375 106.711 22.9375 89.7422C22.9375 79.0547 24.8828 69.7031 28.7734 61.6875C32.6641 53.625 38.2422 47.4609 45.5078 43.1953C52.8203 38.8828 61.375 36.7266 71.1719 36.7266C81.1562 36.7266 91.1875 39.1406 101.266 43.9688L94.2344 61.6875C90.3906 59.8594 86.5234 58.2656 82.6328 56.9062C78.7422 55.5469 74.9219 54.8672 71.1719 54.8672ZM140.781 141H119.336V38.2031H178.258V56.0625H140.781V82.5703H175.656V100.359H140.781V141Z" fill="white"/>
<line x1="13" y1="164" x2="190" y2="164" stroke="#0377BD" stroke-width="10"/>
</g>
<defs>
<clipPath id="clip0">
<rect width="200" height="200" fill="white"/>
</clipPath>
</defs>
</svg>
