<svg width="898" height="200" viewBox="0 0 898 200" fill="none" xmlns="http://www.w3.org/2000/svg">
<g clip-path="url(#clip0)">
<path d="M73.4453 74.1484C68.888 74.1484 65.3594 75.8672 62.8594 79.3047C60.3594 82.7161 59.1094 87.4818 59.1094 93.6016C59.1094 106.336 63.888 112.703 73.4453 112.703C77.4557 112.703 82.3125 111.701 88.0156 109.695V119.852C83.3281 121.805 78.0938 122.781 72.3125 122.781C64.0052 122.781 57.651 120.268 53.25 115.242C48.849 110.19 46.6484 102.951 46.6484 93.5234C46.6484 87.5859 47.7292 82.3906 49.8906 77.9375C52.0521 73.4583 55.151 70.0339 59.1875 67.6641C63.25 65.2682 68.0026 64.0703 73.4453 64.0703C78.9922 64.0703 84.5651 65.4115 90.1641 68.0938L86.2578 77.9375C84.1224 76.9219 81.974 76.0365 79.8125 75.2812C77.651 74.526 75.5286 74.1484 73.4453 74.1484ZM147 122H134.93V97.3516H112.312V122H100.203V64.8906H112.312V87.2734H134.93V64.8906H147V122ZM173.562 90.2422H177.469C181.297 90.2422 184.122 89.6042 185.945 88.3281C187.768 87.0521 188.68 85.0469 188.68 82.3125C188.68 79.6042 187.742 77.6771 185.867 76.5312C184.018 75.3854 181.141 74.8125 177.234 74.8125H173.562V90.2422ZM173.562 100.086V122H161.453V64.8906H178.094C185.854 64.8906 191.596 66.3099 195.32 69.1484C199.044 71.9609 200.906 76.2448 200.906 82C200.906 85.3594 199.982 88.3542 198.133 90.9844C196.284 93.5885 193.667 95.6328 190.281 97.1172C198.875 109.956 204.474 118.25 207.078 122H193.641L180.008 100.086H173.562ZM214.266 122V64.8906H226.375V122H214.266ZM274.461 106.141C274.461 111.297 272.599 115.359 268.875 118.328C265.177 121.297 260.021 122.781 253.406 122.781C247.312 122.781 241.922 121.635 237.234 119.344V108.094C241.089 109.812 244.344 111.023 247 111.727C249.682 112.43 252.13 112.781 254.344 112.781C257 112.781 259.031 112.273 260.438 111.258C261.87 110.242 262.586 108.732 262.586 106.727C262.586 105.607 262.273 104.617 261.648 103.758C261.023 102.872 260.099 102.026 258.875 101.219C257.677 100.411 255.216 99.1224 251.492 97.3516C248.003 95.7109 245.385 94.1354 243.641 92.625C241.896 91.1146 240.503 89.3568 239.461 87.3516C238.419 85.3464 237.898 83.0026 237.898 80.3203C237.898 75.2682 239.604 71.2969 243.016 68.4062C246.453 65.5156 251.193 64.0703 257.234 64.0703C260.203 64.0703 263.029 64.4219 265.711 65.125C268.419 65.8281 271.245 66.8177 274.188 68.0938L270.281 77.5078C267.234 76.2578 264.708 75.3854 262.703 74.8906C260.724 74.3958 258.771 74.1484 256.844 74.1484C254.552 74.1484 252.794 74.6823 251.57 75.75C250.346 76.8177 249.734 78.2109 249.734 79.9297C249.734 80.9974 249.982 81.9349 250.477 82.7422C250.971 83.5234 251.753 84.2917 252.82 85.0469C253.914 85.776 256.479 87.1042 260.516 89.0312C265.854 91.5833 269.513 94.1484 271.492 96.7266C273.471 99.2786 274.461 102.417 274.461 106.141ZM306.844 122H294.734V74.9688H279.227V64.8906H322.352V74.9688H306.844V122ZM382.977 93.3672C382.977 102.82 380.633 110.086 375.945 115.164C371.258 120.242 364.539 122.781 355.789 122.781C347.039 122.781 340.32 120.242 335.633 115.164C330.945 110.086 328.602 102.794 328.602 93.2891C328.602 83.7839 330.945 76.5312 335.633 71.5312C340.346 66.5052 347.091 63.9922 355.867 63.9922C364.643 63.9922 371.349 66.5182 375.984 71.5703C380.646 76.6224 382.977 83.888 382.977 93.3672ZM341.297 93.3672C341.297 99.7474 342.508 104.552 344.93 107.781C347.352 111.01 350.971 112.625 355.789 112.625C365.451 112.625 370.281 106.206 370.281 93.3672C370.281 80.5026 365.477 74.0703 355.867 74.0703C351.049 74.0703 347.417 75.6979 344.969 78.9531C342.521 82.1823 341.297 86.987 341.297 93.3672ZM406.727 122H394.812V64.8906H427.547V74.8125H406.727V89.5391H426.102V99.4219H406.727V122ZM471.609 122H438.719V64.8906H471.609V74.8125H450.828V87.3516H470.164V97.2734H450.828V112H471.609V122ZM495.672 90.2422H499.578C503.406 90.2422 506.232 89.6042 508.055 88.3281C509.878 87.0521 510.789 85.0469 510.789 82.3125C510.789 79.6042 509.852 77.6771 507.977 76.5312C506.128 75.3854 503.25 74.8125 499.344 74.8125H495.672V90.2422ZM495.672 100.086V122H483.562V64.8906H500.203C507.964 64.8906 513.706 66.3099 517.43 69.1484C521.154 71.9609 523.016 76.2448 523.016 82C523.016 85.3594 522.091 88.3542 520.242 90.9844C518.393 93.5885 515.776 95.6328 512.391 97.1172C520.984 109.956 526.583 118.25 529.188 122H515.75L502.117 100.086H495.672ZM569.07 122H557.156V64.8906H589.891V74.8125H569.07V89.5391H588.445V99.4219H569.07V122ZM652.898 93.3672C652.898 102.82 650.555 110.086 645.867 115.164C641.18 120.242 634.461 122.781 625.711 122.781C616.961 122.781 610.242 120.242 605.555 115.164C600.867 110.086 598.523 102.794 598.523 93.2891C598.523 83.7839 600.867 76.5312 605.555 71.5312C610.268 66.5052 617.013 63.9922 625.789 63.9922C634.565 63.9922 641.271 66.5182 645.906 71.5703C650.568 76.6224 652.898 83.888 652.898 93.3672ZM611.219 93.3672C611.219 99.7474 612.43 104.552 614.852 107.781C617.273 111.01 620.893 112.625 625.711 112.625C635.372 112.625 640.203 106.206 640.203 93.3672C640.203 80.5026 635.398 74.0703 625.789 74.0703C620.971 74.0703 617.339 75.6979 614.891 78.9531C612.443 82.1823 611.219 86.987 611.219 93.3672ZM676.844 90.2422H680.75C684.578 90.2422 687.404 89.6042 689.227 88.3281C691.049 87.0521 691.961 85.0469 691.961 82.3125C691.961 79.6042 691.023 77.6771 689.148 76.5312C687.299 75.3854 684.422 74.8125 680.516 74.8125H676.844V90.2422ZM676.844 100.086V122H664.734V64.8906H681.375C689.135 64.8906 694.878 66.3099 698.602 69.1484C702.326 71.9609 704.188 76.2448 704.188 82C704.188 85.3594 703.263 88.3542 701.414 90.9844C699.565 93.5885 696.948 95.6328 693.562 97.1172C702.156 109.956 707.755 118.25 710.359 122H696.922L683.289 100.086H676.844ZM717.547 64.8906H735.32C743.419 64.8906 749.292 66.0495 752.938 68.3672C756.609 70.6589 758.445 74.3177 758.445 79.3438C758.445 82.7552 757.638 85.5547 756.023 87.7422C754.435 89.9297 752.312 91.2448 749.656 91.6875V92.0781C753.276 92.8854 755.88 94.3958 757.469 96.6094C759.083 98.8229 759.891 101.766 759.891 105.438C759.891 110.646 758.003 114.708 754.227 117.625C750.477 120.542 745.372 122 738.914 122H717.547V64.8906ZM729.656 87.5078H736.688C739.969 87.5078 742.339 87 743.797 85.9844C745.281 84.9688 746.023 83.2891 746.023 80.9453C746.023 78.7578 745.216 77.1953 743.602 76.2578C742.013 75.2943 739.487 74.8125 736.023 74.8125H729.656V87.5078ZM729.656 97.1172V112H737.547C740.88 112 743.341 111.362 744.93 110.086C746.518 108.81 747.312 106.857 747.312 104.227C747.312 99.487 743.927 97.1172 737.156 97.1172H729.656ZM804.188 122H771.297V64.8906H804.188V74.8125H783.406V87.3516H802.742V97.2734H783.406V112H804.188V122ZM849.852 106.141C849.852 111.297 847.99 115.359 844.266 118.328C840.568 121.297 835.411 122.781 828.797 122.781C822.703 122.781 817.312 121.635 812.625 119.344V108.094C816.479 109.812 819.734 111.023 822.391 111.727C825.073 112.43 827.521 112.781 829.734 112.781C832.391 112.781 834.422 112.273 835.828 111.258C837.26 110.242 837.977 108.732 837.977 106.727C837.977 105.607 837.664 104.617 837.039 103.758C836.414 102.872 835.49 102.026 834.266 101.219C833.068 100.411 830.607 99.1224 826.883 97.3516C823.393 95.7109 820.776 94.1354 819.031 92.625C817.286 91.1146 815.893 89.3568 814.852 87.3516C813.81 85.3464 813.289 83.0026 813.289 80.3203C813.289 75.2682 814.995 71.2969 818.406 68.4062C821.844 65.5156 826.583 64.0703 832.625 64.0703C835.594 64.0703 838.419 64.4219 841.102 65.125C843.81 65.8281 846.635 66.8177 849.578 68.0938L845.672 77.5078C842.625 76.2578 840.099 75.3854 838.094 74.8906C836.115 74.3958 834.161 74.1484 832.234 74.1484C829.943 74.1484 828.185 74.6823 826.961 75.75C825.737 76.8177 825.125 78.2109 825.125 79.9297C825.125 80.9974 825.372 81.9349 825.867 82.7422C826.362 83.5234 827.143 84.2917 828.211 85.0469C829.305 85.776 831.87 87.1042 835.906 89.0312C841.245 91.5833 844.904 94.1484 846.883 96.7266C848.862 99.2786 849.852 102.417 849.852 106.141Z" fill="white"/>
<line x1="42" y1="140" x2="856" y2="140" stroke="#0277BD" stroke-width="10"/>
</g>
<defs>
<clipPath id="clip0">
<rect width="898" height="200" fill="white"/>
</clipPath>
</defs>
</svg>
